<svg xmlns="http://www.w3.org/2000/svg" xmlns:xlink="http://www.w3.org/1999/xlink" width="148" height="112" viewBox="0 0 148 112">
    <defs>
        <path id="a" d="M0 0h148v96H0z"/>
        <path id="c" d="M0 .365h13.351v13.173H0z"/>
        <path id="e" d="M.267.36h8.866v14.925H.267z"/>
    </defs>
    <g fill="none" fill-rule="evenodd">
        <g>
            <mask id="b" fill="#fff">
                <use xlink:href="#a"/>
            </mask>
            <path fill="#FEFEFE" d="M23.114 65.453c-.182.636-.265.565-.382 1.04-.142.167-.154.012-.385.03-.68.21-2.232.177-2.546.124-.563-.266-1.03-.306-1.458-.816-.427-.51-.706-1.109-1.07-1.78-.272-.521-.8-1.333-.85-1.95-.11-1.39-.68-2.742-.913-3.733-.089-.149-.125-.612-.15-.92-.08-.134-.217-.202-.2-.389-.132-.575-.442-1.762-.628-2.263-.193-1.46-.687-2.82-.962-4.35-.154.011-.21-.683-.203-.606-.441-1.673-.993-4.736-1.4-6.956.072-.083.035-.546-.131-.688-.46-4.856-.912-11.576-1.604-17.423-.043-.54-.002-1.01-.27-1.454-3.29.493-7.014.4-8.193-2.768-.53-.812-.731-1.418-.977-2.563.023-.7-.34-1.37-.613-1.893-.037-.463-.073-.926.004-.932-.12-.534-.12-.534-.169-1.152-.076.007.17-.79.312-.956.148-.09.379-.108.379-.108.006.078.462-.036.468.041.958 2.332 5.8 1.87 7.758 1.172 7.927-.628 16.328-3.08 24.2-4.402.604-.203 1.58-.59 1.567-.745.456-.114.687-.132 1.232-.098.018.232-.053.315.042.54.421.433.88 1.329 1.406 1.132.165.142-.112.552.131.688-.07.083.006.077-.064.16-.29.256-1.035.626-.318.88.239 1.068-1.394 4.925-2.009 4.974-5.008 3.27-11.284 3.223-16.764 4.433 2.594 3.445.412 7.19.916 10.644.055.695.436 1.597.437 2.606.018.231-.117.475-.1.706.114 3.408 1.21 6.505 1.838 9.562.644 5.23.523 9.587 1.214 14.425.933 2.023-.422 2.518.192 4.411.172.22-.087.861.144.843-.053.315-.053.315.12.534zm37.529 14.43c.052-.182.052-.312.103-.468.156-.415.44-.726.725-1.038.104-.493.518-1.09.906-1.297.078-.052.155 0 .233.026.13.519 0 .934-.155 1.35-.026.129-.052.285-.104.415-.155.363-.31.752-.57 1.038-.077.078-.154.181-.258.26-.155.18-.233.31-.466.466-.233.13-.517.312-.828.338-.026-.415.285-.727.414-1.09zm9.006-7.371c.26-.623.388-1.376.673-1.999.181-.727.414-1.427.906-1.739.466.7.466 1.74.285 2.466-.026.26-.078.52-.13.779-.051.26-.077.519-.13.752-.413 2.077-1.319 3.712-2.38 5.425.233-1.947.207-3.92.776-5.684zm4.038 8.668c-.388.65-.673 1.35-1.035 2.05-.311.676-.673 1.324-1.243 1.843-.233.234-.776.442-1.112.338-.648-.182-.932-.83-1.062-1.376-.103-.363-.155-.778-.233-1.167-.103-1.09-.18-2.025-.13-3.063.027-.649.57-1.038.855-1.557.932-1.714 1.579-2.777 2.07-5.087.182-.753.285-1.324.389-1.895.155-1.064.336-3.218-.648-3.971-1.138-.909-1.992 1.038-2.458 1.895-.854 1.712-1.45 3.685-1.837 5.554-.233 1.064-.544 2.102-.673 3.166-.14 1.045-.298 2.148-.303 3.23-.276.313-.62.725-.81 1-.7.987-2.381 2.544-4.245 2.44-.388-.026-.672-.233-.931-.57-.155-.156-.44-.442-.44-.65-.026-.103 0-.26.026-.389 0-.337.026-.493.051-.779.285-.077.673.13.932.156a2.64 2.64 0 0 0 1.01.026 2.774 2.774 0 0 0 1.76-.908c.93-1.038 1.267-2.673.543-3.945-.363-.597-1.087-1.428-1.786-1.661-.595-.182-1.423.233-1.863.545-.57.441-1.087.908-1.553 1.427-.906.987-1.217 2.44-1.424 3.764-.129.96.13 1.946.57 2.803.13.26.285.519.466.727.13.155.284.31.414.492.155.182.336.364.491.52.26.233.518.44.829.57.595.208 1.371.182 1.863-.181.518-.39 1.087-.727 1.63-1.09 1.268-.83 1.812-1.843 2.407-3.063.04-.063.074-.13.106-.2a7 7 0 0 0 .076.538c.362 1.868.465 3.504 2.2 4.438.491.285 1.138.44 1.733.44.492 0 1.216-.362 1.605-.985.259-.416.802-1.506.983-1.973.285-.7.699-1.583.984-2.388.232-.674.492-1.116.465-1.142-.051-.233-.569-.13-.672.078zm34.783-1.22s.026.027.052.027c0 .207-.026.415-.052.622-.103.364-.362.727-.518 1.064-.233.571-.62 1.324-.906 1.87-.31.544-.62 1.141-.853 1.608-.363.753-.647 1.428-1.605 1.48-.958.026-2.019-.83-2.433-1.687-.051-.078-.31-.831-.31-.831-1.01.727-1.243 2.025-2.873 1.558-1.63-.468-1.993-2.985-1.915-4.36.129-2.726 1.837-4.699 4.348-5.477.336-.104.62-.208 1.035-.26.388-.026.75.156 1.113.208.233.026.465.156.647.311.362.26-.13.338-.362.39-.466.104-.958-.078-1.45.078-1.216.415-2.019 2.283-2.381 3.426-.336 1.038-.906 3.27-.595 3.581.983 0 2.018-1.843 2.536-2.647.363-.52.44-1.09.647-1.687.052-.182.544-1.661.725-1.765.103-.078.388-.052.518-.052.155.026.336.052.465.13.362.207.621.623.621 1.012 0 2.05-.724 3.763-.284 5.606.077.26.284.39.698.26.647-.234.855-.987 1.217-1.557.388-.598.776-1.22 1.061-1.87.155-.285.284-.57.44-.856.052-.104.233-.155.414-.181zm-12.992-.31c-.104 1.115-.259 2.283-.492 3.218-.13.389-.206.856-.31 1.22-.156.622-.518 1.271-.466 1.92.026.285.181 1.453-1.294.856-.414-.181-.57-.7-.647-1.142-.155-1.012.284-2.05.414-3.036.13-1.065.103-1.999.181-3.011.026-.441.285-1.48-.517-1.427-.388.025-1.01.077-1.217.389-.75.7-.828-.493-.103-1.454.258-.337.569-.7 1.035-.908 2.303-1.09 3.545 1.661 3.416 3.374zm-8.23-10.876c.207-.778.647-1.064 1.01-1.22.025.312 0 .39 0 .65-.26 3.71-.57 7.033-1.476 10.51-.026-3.53-.336-6.54.466-9.94zm-2.484 13.367c-.052.233 0 .545-.207.778-.777 1.09-2.537 2.414-3.365.987-.362-2.05.31-3.608 1.708-5.01.181-.155.337-.389.544-.545.206-.155.44-.207.62-.415.156-.155.44-.363.674-.415 0 .597-.078 1.194-.078 1.765 0 .623.026 1.22.104 1.816.026.416.077.753 0 1.039zm6.884-2.544c-.052.026-.182-.104-.233-.078-.052.026-.026.182-.078.234a.543.543 0 0 1-.103.156c-.052.026-.156.233-.182.285a.52.52 0 0 1-.103.208c-.466.778-2.381 5.06-3.08 4.827-.776-.26-.88-1.064-.931-1.66 0-1.065.155-2.31.388-2.986 1.475-4.1 1.94-7.604 2.07-10.822.026-.623.104-1.246.078-1.843-.026-.39-.181-1.038-.725-1.246-.388-.156-.699-.078-1.01.026-.232.104-.44.234-.62.39-1.475 1.323-1.424 3.347-1.786 5.164-.259 1.064-.207 2.18-.388 3.27-.13.675-.828.546-1.657.96-.931.468-2.458 1.324-3.105 2.051-.828 1.168-1.217 2.18-1.346 3.971-.078 1.22.078 2.466.984 3.322.75.675 1.656 1.246 2.898 1.246.854 0 1.242-.467 1.76-.856.517-.468.802-1.013 1.01-1.298.232.363.232.467.543.83.31.338.336.39.647.65.259.18.44.337.75.285.88-.104 1.165-.545 1.527-.96.388-.442 1.76-3.4 1.967-3.816.104-.182.155-.311.259-.519.103-.208.181-.415.259-.649.051-.104.18-.39.233-.493.051-.104.129-.208.155-.311.026-.052 0-.104-.026-.156-.026-.078-.026-.156-.155-.182zm3.39-7.163v.026c.026.13.052.104 0 .39-.207.18-.492.57-.621.674-.621.597-1.346 1.324-2.148 1.687-.052.026-.285.026-.414 0-.181-.26-.207-.13-.156-.493.7-.39 1.398-1.35 1.941-1.817l.596-.7.673.18c.051 0 .051-.025.129.053zm-52.02 6.462a7.342 7.342 0 0 1-.336 1.298c0 .026-.155.415-.13.441-.31-.13-.517-.467-.724-.726-.285-.39-.336-.883-.285-1.35 0-.078.104-.286.104-.286.31-.44.518-1.012 1.19-1.012.078.13.104.26.13.39.051.285.103.57.103.856 0 .13-.026.26-.052.39zm-10.43 2.855c-.129.078-.517.156-.594.234-.7.207-1.45.908-1.941 1.376-.233.077-1.58 1.816-1.76 1.894-.207-.856-.13-2.88-.156-3.036-.31-1.065.104-2.881-.284-4.283a2.583 2.583 0 0 1-.13-.675.5.5 0 0 1 .311-.519c2.019-1.012 4.063-.545 4.529 1.791.233 1.116.259 2.102.026 3.218zm-2.975 3.426c.077-.181.413-.648.543-.856.181-.286.57-.545.88-.83.233-.208.44-.364.699-.572.207-.156.31-.363.673-.389-.233 1.453-1.657 2.076-2.795 2.647zm23.24-3.296c-.078-.026-.285-.052-.336.026 0 0-.052.13-.156.26-.13.233-.88 1.765-1.112 2.128a14.6 14.6 0 0 1-.44.675c-.389.597-1.708 2.024-2.433 1.35-.233-.546.052-1.454.18-1.921.13-.441.208-.883.337-1.324.182-.467.311-.96.466-1.427.181-.494.725-2.336.88-2.83.155-.493-.31-1.193-.621-1.53-.414-.442-1.812-.624-1.967-.857-.026-.026 0-.052 0-.078-.13-.467.052-.779.103-1.22.027-.545-.595-.986-1.035-1.064-.258-.052-.569.234-.672.441-.389.7-.156 1.713.284 2.284.078.156.13.234.181.441.052.182.182.234.052.546-.026.051-.103.233-.259.544-.052.104-.103.208-.18.338a1.3 1.3 0 0 0-.13.337c-.414.753-.803 1.531-1.734 1.843-.13.052-.31.156-.466.13-.259-.052-.155-.364-.13-.545.052-.208.052-.52.078-.649.026-.078.026-.312.078-.39h.026c.025-.181.077-.337.077-.518.026-.208 0-.416 0-.598.026-.181.052-.337.052-.519-.026-.181-.13-.233-.207-.363-.052-.078-.078-.182-.13-.26-.077-.18-.18-.389-.336-.493-.31-.233-.75-.493-1.19-.207-.337.233-.466.649-.673 1.012-.337.597-.414 1.246-.388 1.92 0 .027-.026.027 0 .052 0 0 0-.025.026-.025 0 .103.025.207.077.285.078.234.13.467.259.623.259.337.518.597.57 1.038.051.39-.052.83-.26 1.168-.336.571-.983 1.454-1.708 1.48-.724.051-1.035-.909-1.113-1.48-.129-.805-.025-1.635.13-2.414.181-.934.595-1.817 1.087-2.647.207-.26.44-.493.647-.727.104-.13.233-.182.336-.26.13-.103.906-.415.906-.57.156-.078.13-.234.156-.364a.36.36 0 0 0-.052-.285h.052c-.052-.415-1.89-.104-2.019 0-.233.155-.44.363-.673.545-.44.441-.854.908-1.19 1.427a8.567 8.567 0 0 0-1.018 2.013c-.123.258-.35.754-.561 1.18-.466.7-1.113.83-1.63.908a.418.418 0 0 1-.337-.156c-.259-.389-.13-1.453-.181-1.816-.078-.623-.207-1.22-.518-1.74a5.308 5.308 0 0 0-.518-.804c-1.32-1.531-2.536-2.076-5.15-1.946-.905.051-1.734.778-2.536 1.064-.103.051-.259-.286-.388-.26-.052 0-.052-.026-.13-.026-.026 0-.232 0-.232-.026a.195.195 0 0 1-.052.104c-.026.052-.052.052-.078.104-.077.052.026.104 0 .182h-.026c-.026.025.052.44.052.493.026.051 0 .13 0 .181 0 .234.31.442.362.65.13.44.104.934.156 1.4.077.935-.181 2.025-.104 2.96.207 2.595-.207 5.035 0 7.604.078.727-.026 1.428-.052 2.154-.052.571.052 1.376.052 1.973-.026.545 0 .804 0 1.194.052.804.595 1.401 1.372 1.401.595 0 1.113-.182 1.268-.726.491-1.636.052-2.622 0-3.946 0-.83.077-1.738.052-2.57 0-.726.103-1.427.077-2.153 0 .13 1.708.26 1.863.233 3.054-.674 3.598-2.232 4.633-4.568 1.028-.093 1.55-.126 2.117-.74a5.95 5.95 0 0 0 .057 1.338c.104.493.285 1.064.544 1.505.414.804 1.164 1.401 1.94 1.816.415.208.855.338 1.32.39 2.485.311 3.003-1.973 3.003-3.79.026-.207.051-.492.155-.674.104-.182.31-.156.466-.182.233-.026.44-.078.647-.208.466-.259.621-.57.983-.986.44-.545.647-1.194.828-1.868.052-.078.078-.13.104-.182.13-.234.207-.364.207-.39.052-.155.052-.207.078-.285.077-.13.051-.13.103-.285.156.103.156.181.31.26.208.077.311.129.518.18-.207.364-.285.753-.466 1.117-.31.726-.957 2.829-1.112 3.582-.13.752-.363 1.53-.285 2.31.052.389.388 1.92 1.656 2.128.803.077 1.372 0 1.734-.208.88-.571 1.864-2.05 2.304-2.751.13-.182.207-.415.284-.52.052-.077.803-1.53.854-1.686.026-.104-.077-.208-.155-.26zm75.484-15.539a94.69 94.69 0 0 1-1.156 4.429c-.243.949-.407 1.892-.65 2.84-.682 2.377-1.904 4.793-3.554 6.618-1.502 1.737-4.357 2.95-5.775.412-.88-1.49-.621-3.292.04-4.892.588-1.517 1.798-3 2.773-4.544 1.397-1.031 2.206-2.719 3.432-3.97 1.079-1.164 2.014-2.162 3.092-3.325.495-.657 1.205-1.56 1.958-1.848l.077-.005c.182 1.462.126 2.862-.237 4.285zM36.565 43.557c.116-.552.088-.938.21-1.412.373-1.269 1.155-2.255 1.936-3.242.203-1.49 1.31-3.354 2.42-4.054.22-.17.463-.033.7.028.494 1.517.197 2.78-.178 4.048-.05.392-.093.86-.22 1.258-.385 1.114-.765 2.305-1.475 3.21-.215.247-.423.573-.715.826-.424.574-.627.976-1.287 1.49-.666.435-1.475 1.036-2.393 1.179-.165-1.23.693-2.222 1.002-3.331zM87.478 5.309c.182-.712.617-3.304 1.805-2.923.715.26 1.309.993 1.666 1.666.45.9.604 1.975.83 2.968.181 1.461-.029 2.873-.315 4.29-.595 2.527-1.03 5.119-1.937 7.59-.518 1.434-.953 2.939-1.789 4.24-.154-1.075.16-2.107.083-3.187.022-.778-.187-1.54-.241-2.311-.127-.69-.028-1.473-.077-2.168 0-1.087-.005-2.25-.164-3.403-.236-2.234-.395-4.473.14-6.762zm60.445 33.869c-.924.066-1.095-.155-1.59-.585-.198.48-.456 1.197-.742 1.528-1.376 2.426-2.454 4.676-4.39 6.832-.793.833-3.852 3.534-4.858 4.615.291-.253-.476-8.89-.531-9.663-.076-4.34.267-11.505-1.487-15.493-1.182-3.564-1.666-3.84-5.609-3.79-.946.843-.732 1.681-.814 2.696-.007 1.01.604 1.975.521 2.99-.144 3.425.763 6.387.51 9.354-.293 4.6-7.897 16.318-10.718 14.735-1.429-2.692-2.594-10.37-2.9-12.521-.687-4.22.419-4.997-.68-10.662-.56-1.357-.456-2.063-1.165-3.331-.885-1.567-1.93-2.113-3.706-2.064-2.31.165-2.206 1.632-1.92 3.474.474 3.482.57 9.541 1.1 15.215-.307.743-.594 1.476-.94 2.313-.264.64-.61 1.208-.951 1.853-.341.646-.523 1.357-.864 2.002-.545 1.048-.716 1.914-1.343 2.89-.55.97-2.62 5.62-3.697 5.697-.71-.183-.654-.497-.776-1.11-.252-1.378.106-2.879.09-3.11 1.074-7.76.86-12.945-1.002-20.65-.89-3.817-4.745-4.706-6.995-4.778-1.639-.194-2.331-.144-3.157.225-.902.375-1.765 1.29-2.36 1.643-.077.005 1.063-3.568 1.195-3.888.424-.574.93-1.075 1.354-1.649.555-.893 1.11-1.787 1.66-2.757 1.101-1.942 1.96-4.02 2.5-6.232.897-3.712 1.058-7.992-.586-11.522C91.884.88 89.515-.89 86.748.47c-3.14 1.544-4.957 5.399-6.052 8.504-2.438 7.081-2.786 15.255-3.261 22.74-.269 4.244-.145 8.67.223 12.98-.69.814-1.31 1.687-2.069 2.44-1.733 1.754-4.038 4.169-5.941 5.702-1.612 1.28-2.795 2.062-4.577 3.12-.748.364-1.903.447-2.766.276-.242-.139-1.045-.547-1.298-.84-.182-.375-.308-1.064-.335-1.45a10.881 10.881 0 0 1-.159-2.24c-.115-2.707.76-5.641.8-8.36-.011-.155.12-.475.187-.635.06-.237.044-.468.104-.706.11-.629.297-1.263.49-1.82.193-.557.468-1.042.584-1.594.198-.48.23-1.103.506-1.588.27-.562.54-1.125.886-1.693.28-.408.72-.75 1.084-1.086.214-.248.27-.563.643-.745.182.376.148.999.176 1.385.038.54.071 1.004.027 1.473.066.926-.017 1.941.126 2.862.038.54.153 1.076.269 1.61.1.304.209.762.374.905.17.22.396.128.72.337.319.132.572.425.974.629.808.485 1.369.756 1.951 1.335.534-.116.947.243 1.238-.01l-.077.005c.071-.083.16.066.154-.011.853-1.07 1.425-2.818 1.645-4.076.458-2.283-.56-4.616-1.78-6.547-.687-.96-1.446-1.837-2.419-2.466-.242-.138-1.54-.977-1.941-1.181-.077.006-.578-.502-1.05-.623-.325-.21-1.183-.304-1.183-.304-2.734.738-4.72 2.2-6.524 4.036-3.003 3.474-4.77 6.937-5.48 11.1-.22.172-.144 1.253-.358 1.501.083.072.088.15.099.304-.037.489-.041.993-.022 1.503-.52.719-1.026 1.456-1.352 2.01-1.872 3.082-6.548 8.073-12.113 8.16-1.161.005-2.052-.552-2.893-1.501-.495-.43-1.402-1.22-1.446-1.837-.099-.304-.055-.773-.005-1.165-.071-1.003-.027-1.472-.01-2.327.83-.292 2.03.243 2.805.266 1.017.16 2.018.089 3.008-.137a8.282 8.282 0 0 0 5.044-3.077c2.553-3.286 3.208-8.222.784-11.853-1.204-1.698-3.536-4.016-5.664-4.562-1.81-.414-4.185.997-5.428 2.017-1.602 1.434-3.043 2.934-4.32 4.577-2.486 3.126-3.103 7.516-3.44 11.499-.182 2.884.797 5.764 2.286 8.218.44.745.957 1.484 1.54 2.064.418.435.913.866 1.336 1.38.5.506 1.078 1.009 1.573 1.44.819.639 1.633 1.202 2.584 1.522 1.815.49 4.12.249 5.506-.937 1.458-1.268 3.08-2.392 4.62-3.589 3.277-2.495 4.732-5.313 6.11-8.633.123.487.263.963.419 1.415.198.607.704 1.191.665 1.738 1.342 2.542 2.777 4.225 4.69 6.106 1.82 1.655 5.114 2.274 7.59 1.166 1.501-.65 3.261-2.018 4.582-3.043 1.397-1.032 2.343-1.875 3.333-3.188 1.126-1.49 2.547-3.804 3.605-5.814l.015.123c.214 1.925.499 3.767.56 5.704.021 1.395-.299 3.435.488 4.699.703 1.192 2.584 1.523 3.893 1.43 1.54-.11 2.315-.088 2.668-1.666.237-1.026.32-2.04.402-3.055.16-2.107-.148-4.258-.372-6.337-.522-5.163-1.34-7.976.394-12.99.506-1.588 3.62-7.864 5.654-4.284.17.221.182.375.27.524.73 1.578.642 3.602.68 5.23-.039 2.719.357 2.846.24 5.57-.05 2.565-.138 6.762.273 9.294.665 3.91 2.117 5.825 6.373 6.918.71.182 1.403.133 2.172.078 2.833-.435 5.38-8.145 6.102-9.982.521-1.372.992-2.625 1.47-3.958.362 2.456.856 4.682 1.565 6.38 1.017 2.333 3.299 5.042 6.78 5.026 1.705.034 3.53-.407 5.11-1.063 3.08-1.306 4.802-6.474 6.404-8.994.192.53.036 8.146.069 8.61-.088-.15-6.932 7.014-7.295 7.35-3.031 3.088-6.007 6.948-7.581 10.94a12.946 12.946 0 0 0-.86 4.253c-.027 1.787.808 3.745 1.842 5.224 1.902 2.813 7.204 2.28 9.74.934 3.063-1.538 6.177-4.554 7.35-7.664 2.817-7.186 4.232-11.246 4.172-17.528-.005-1.163.21-1.412.128-2.57-.034-.463-.088-.149.066-1.246 3.939-3.386 5.859-6.86 8.384-10.533.644-.744.76-1.296 1.106-1.864.683-1.29 1.552-4.301 1.613-4.539l-.077.006z" mask="url(#b)"/>
        </g>
        <path fill="#FFF" d="M60.954 111.332v-6.914c0-1.667-.714-2.524-2.056-2.524s-2.395.857-2.395 2.524v6.914h-3.588v-12.41l3.515.012v1.757c.809-1.04 2.12-1.988 3.902-1.988 2.662 0 4.211 1.757 4.211 4.603v8.026h-3.59zM94.523 102.38c-2.336 0-3.772 1.41-3.772 4.373v4.58h-3.516V98.933h3.516v2.498c.718-1.711 1.873-2.823 3.956-2.73v3.678h-.184z"/>
        <g transform="translate(39 98.102)">
            <mask id="d" fill="#fff">
                <use xlink:href="#c"/>
            </mask>
            <path fill="#FFF" d="M6.674 3.826c-1.72 0-2.969 1.451-2.969 3.125 0 1.675 1.25 3.126 2.97 3.126 1.72 0 2.97-1.451 2.97-3.126 0-1.674-1.25-3.125-2.97-3.125m0 9.712C2.88 13.538 0 10.747 0 6.951 0 3.158 2.88.365 6.674.365c3.795 0 6.677 2.793 6.677 6.586 0 3.796-2.882 6.587-6.677 6.587" mask="url(#d)"/>
        </g>
        <g transform="translate(77.154 96.256)">
            <mask id="f" fill="#fff">
                <use xlink:href="#e"/>
            </mask>
            <path fill="#FFF" d="M9.06 14.895c-1.169.316-2.217.39-2.8.39-3.63 0-3.63-2.288-3.63-3.312V5.416H.267V2.7H2.63V.85L6.21.36V2.7h2.923v2.716H6.211v5.363c.023 1.121.023 1.826 1.632 1.826.535 0 .78-.024 1.218-.072v2.362z" mask="url(#f)"/>
        </g>
        <path fill="#FFF" d="M71.49 101.57c-1.335 0-2.516.91-2.806 2.245h5.613a2.857 2.857 0 0 0-2.807-2.246m6.413 4.61h-9.262c.223 1.468 1.447 2.335 2.895 2.335 1 0 1.647-.398 2.25-1.156h3.783c-1.069 2.47-3.25 4.275-6.033 4.275-3.607 0-6.549-2.94-6.549-6.548 0-3.584 2.852-6.633 6.481-6.633 3.784 0 6.523 3.027 6.523 6.745 0 .336-.088.981-.088.981M101.13 101.57c-1.336 0-2.517.91-2.807 2.245h5.614a2.857 2.857 0 0 0-2.808-2.246m6.414 4.61H98.28c.223 1.468 1.447 2.335 2.895 2.335 1.001 0 1.648-.398 2.249-1.156h3.785c-1.07 2.47-3.25 4.275-6.034 4.275-3.606 0-6.547-2.94-6.547-6.548 0-3.584 2.85-6.633 6.48-6.633 3.784 0 6.523 3.027 6.523 6.745 0 .336-.088.981-.088.981M114.505 101.57c-1.334 0-2.516.91-2.806 2.245h5.613a2.857 2.857 0 0 0-2.807-2.246m6.414 4.61h-9.263c.223 1.468 1.448 2.335 2.895 2.335 1.001 0 1.647-.398 2.25-1.156h3.782c-1.068 2.47-3.249 4.275-6.032 4.275-3.607 0-6.547-2.94-6.547-6.548 0-3.584 2.85-6.633 6.479-6.633 3.784 0 6.523 3.027 6.523 6.745 0 .336-.087.981-.087.981"/>
        <path fill="#DA3A3A" d="M124.105 111.64h-3.66l2.787-4.28h3.657z"/>
        <text fill="#FFF" font-family="Hensa-Regular, Hensa" font-size="16" transform="translate(20 96)">
            <tspan x=".5" y="15">en</tspan>
        </text>
    </g>
</svg>
