<svg xmlns="http://www.w3.org/2000/svg" xmlns:xlink="http://www.w3.org/1999/xlink" width="296" height="224" viewBox="0 0 296 224">
    <defs>
        <path id="a" d="M0 0h296v192H0z"/>
        <path id="c" d="M0 .73h26.702v26.347H0z"/>
        <path id="e" d="M.535.72h17.732v29.85H.535z"/>
    </defs>
    <g fill="none" fill-rule="evenodd">
        <g>
            <mask id="b" fill="#fff">
                <use xlink:href="#a"/>
            </mask>
            <path fill="#FEFEFE" d="M46.229 130.906c-.365 1.272-.53 1.13-.765 2.08-.284.333-.308.024-.77.061-1.361.418-4.464.353-5.091.248-1.126-.532-2.062-.614-2.917-1.632-.854-1.02-1.412-2.219-2.138-3.56-.547-1.043-1.604-2.667-1.701-3.902-.22-2.779-1.361-5.483-1.828-7.465-.177-.297-.25-1.223-.298-1.84-.162-.269-.436-.404-.401-.777-.265-1.152-.884-3.524-1.256-4.528-.386-2.92-1.374-5.638-1.925-8.7-.308.024-.417-1.365-.405-1.21-.882-3.348-1.985-9.473-2.799-13.912.142-.167.07-1.093-.264-1.378-.919-9.71-1.823-23.151-3.208-34.845-.084-1.08-.003-2.019-.538-2.908-6.582.987-14.03.8-16.388-5.536-1.057-1.625-1.462-2.835-1.953-5.126.046-1.401-.68-2.741-1.226-3.786-.073-.925-.146-1.852.008-1.864-.24-1.069-.24-1.069-.337-2.303-.154.013.34-1.58.624-1.913.296-.179.757-.215.757-.215.012.155.924-.074.936.081 1.916 4.663 11.6 3.74 15.516 2.344 15.853-1.256 32.656-6.16 48.4-8.804 1.207-.406 3.16-1.182 3.135-1.49.911-.228 1.373-.265 2.463-.195.036.463-.106.629.084 1.08.843.865 1.759 2.656 2.812 2.263.331.283-.224 1.104.263 1.376-.142.167.011.154-.13.321-.58.512-2.07 1.251-.636 1.759.478 2.136-2.786 9.85-4.017 9.947-10.016 6.54-22.568 6.447-33.528 8.868 5.189 6.889.823 14.379 1.832 21.287.11 1.39.871 3.193.874 5.212.036.463-.234.95-.198 1.413.227 6.816 2.419 13.01 3.674 19.123 1.288 10.459 1.045 19.175 2.427 28.85 1.867 4.046-.842 5.037.386 8.822.344.44-.175 1.723.286 1.687-.105.628-.105.628.24 1.067zm75.057 28.86c.104-.364.104-.623.207-.935.31-.83.88-1.454 1.45-2.076.207-.987 1.034-2.18 1.811-2.596.155-.104.31 0 .466.052.258 1.039 0 1.869-.31 2.7-.053.259-.104.57-.207.83-.311.727-.622 1.506-1.14 2.076-.155.156-.31.364-.517.52-.31.363-.466.622-.932.933-.466.26-1.035.624-1.656.676-.052-.83.57-1.454.828-2.18zm18.013-14.743c.518-1.246.776-2.751 1.346-3.996.362-1.454.828-2.855 1.811-3.478.932 1.4.932 3.478.57 4.931-.052.52-.156 1.038-.259 1.557-.104.52-.155 1.038-.26 1.505-.827 4.153-2.639 7.424-4.761 10.85.466-3.894.414-7.839 1.553-11.369zm8.074 17.338c-.776 1.297-1.346 2.7-2.07 4.1-.621 1.35-1.346 2.648-2.484 3.686-.466.467-1.554.883-2.226.675-1.294-.364-1.864-1.661-2.122-2.752-.208-.726-.31-1.557-.466-2.335-.207-2.18-.362-4.05-.26-6.125.053-1.298 1.14-2.077 1.709-3.115 1.864-3.426 3.158-5.554 4.141-10.174.362-1.505.57-2.647.776-3.79.31-2.128.673-6.436-1.294-7.941-2.277-1.817-3.986 2.076-4.917 3.79-1.708 3.425-2.899 7.37-3.675 11.108-.466 2.128-1.087 4.204-1.345 6.332-.279 2.09-.595 4.295-.607 6.462-.55.624-1.24 1.448-1.62 2-1.397 1.971-4.761 5.086-8.488 4.879-.777-.052-1.346-.468-1.863-1.142-.311-.312-.88-.883-.88-1.298-.052-.208 0-.52.052-.778 0-.675.051-.987.103-1.558.57-.155 1.345.26 1.863.311a5.28 5.28 0 0 0 2.019.052 5.549 5.549 0 0 0 3.52-1.816c1.863-2.077 2.536-5.346 1.086-7.89-.724-1.194-2.173-2.855-3.57-3.323-1.191-.363-2.848.468-3.727 1.09a23.338 23.338 0 0 0-3.106 2.856c-1.812 1.972-2.433 4.879-2.848 7.526-.258 1.921.26 3.894 1.14 5.606.258.52.569 1.038.931 1.454.26.31.57.622.828.986.311.364.673.727.984 1.038.517.468 1.035.883 1.656 1.142 1.19.415 2.743.364 3.727-.364 1.035-.778 2.174-1.452 3.26-2.18 2.537-1.66 3.624-3.685 4.815-6.125.078-.125.146-.262.212-.401.038.361.085.72.15 1.077.725 3.737.932 7.007 4.4 8.876.983.57 2.277.882 3.468.882.983 0 2.432-.727 3.209-1.972.517-.831 1.604-3.011 1.967-3.945.569-1.402 1.397-3.167 1.967-4.776.465-1.35.983-2.232.93-2.284-.102-.467-1.137-.26-1.345.156zm69.567-2.44s.052.052.103.052c0 .415-.051.83-.103 1.246-.207.727-.725 1.453-1.035 2.128-.466 1.142-1.242 2.647-1.812 3.738a67.855 67.855 0 0 0-1.707 3.218c-.725 1.505-1.295 2.855-3.21 2.959-1.915.051-4.038-1.661-4.866-3.374-.103-.156-.621-1.662-.621-1.662-2.018 1.454-2.484 4.05-5.745 3.115-3.261-.934-3.986-5.97-3.83-8.72.258-5.451 3.675-9.396 8.695-10.953.673-.208 1.243-.416 2.07-.52.777-.052 1.502.312 2.226.416.466.052.932.311 1.294.623.725.52-.258.674-.724.779-.932.207-1.915-.156-2.899.155-2.432.83-4.038 4.568-4.762 6.852-.673 2.077-1.811 6.54-1.19 7.163 1.967 0 4.037-3.685 5.072-5.294.725-1.038.88-2.18 1.294-3.374.104-.363 1.087-3.322 1.45-3.53.207-.156.776-.104 1.035-.104.31.052.673.104.931.26.725.415 1.243 1.245 1.243 2.024 0 4.1-1.45 7.527-.57 11.212.155.52.57.779 1.397.52 1.295-.468 1.71-1.973 2.434-3.115.776-1.194 1.553-2.44 2.122-3.738.31-.57.569-1.142.88-1.712.103-.209.465-.312.828-.364zm-25.984-.623c-.207 2.232-.517 4.569-.984 6.437-.258.778-.413 1.713-.62 2.44-.311 1.245-1.036 2.543-.932 3.84.052.572.362 2.908-2.589 1.714-.828-.364-1.138-1.402-1.293-2.284-.31-2.025.569-4.101.828-6.074.258-2.128.207-3.997.362-6.021.052-.882.57-2.959-1.035-2.855-.776.052-2.02.156-2.433.779-1.5 1.401-1.656-.986-.207-2.907.518-.675 1.14-1.401 2.07-1.817 4.607-2.18 7.092 3.322 6.833 6.748zm-16.46-21.75c.414-1.556 1.294-2.128 2.018-2.44.052.624 0 .78 0 1.299-.516 7.423-1.138 14.067-2.95 21.023-.052-7.06-.673-13.081.932-19.881zm-4.968 26.733c-.105.467 0 1.09-.415 1.558-1.553 2.18-5.073 4.827-6.729 1.972-.724-4.1.621-7.215 3.416-10.018.363-.312.673-.778 1.087-1.09.414-.312.88-.415 1.243-.83.31-.312.88-.727 1.345-.831 0 1.193-.155 2.388-.155 3.53 0 1.245.052 2.44.208 3.633.051.83.154 1.505 0 2.076zm13.768-5.086c-.104.052-.363-.208-.467-.157-.103.052-.051.364-.155.468a1.087 1.087 0 0 1-.206.311c-.104.053-.312.468-.363.571-.052.156-.103.312-.207.416-.932 1.557-4.762 10.122-6.16 9.654-1.553-.519-1.76-2.128-1.863-3.322 0-2.128.31-4.62.777-5.97 2.95-8.2 3.881-15.208 4.14-21.645.052-1.246.207-2.491.155-3.685-.051-.779-.362-2.077-1.448-2.492-.777-.311-1.398-.155-2.02.052-.466.207-.88.467-1.241.779-2.951 2.647-2.848 6.696-3.572 10.33-.518 2.128-.414 4.36-.777 6.54-.258 1.35-1.656 1.09-3.313 1.92-1.863.935-4.916 2.648-6.21 4.102-1.657 2.335-2.433 4.36-2.692 7.941-.155 2.44.155 4.931 1.967 6.644 1.501 1.35 3.312 2.492 5.797 2.492 1.708 0 2.484-.934 3.52-1.713 1.035-.935 1.604-2.024 2.018-2.596.466.727.466.935 1.088 1.661.62.675.672.78 1.294 1.298.517.364.88.675 1.5.571 1.76-.207 2.33-1.09 3.054-1.92.776-.883 3.52-6.8 3.934-7.63.207-.364.31-.624.518-1.039.207-.415.362-.83.517-1.298.104-.208.363-.778.466-.986.104-.207.259-.416.31-.622.053-.104 0-.208-.051-.312-.052-.156-.052-.311-.31-.363zm6.78-14.327v.051c.051.26.103.209 0 .78-.414.362-.984 1.141-1.242 1.349-1.242 1.194-2.691 2.647-4.296 3.374-.104.052-.57.052-.828 0-.363-.519-.414-.26-.311-.987 1.398-.778 2.795-2.699 3.882-3.633l1.19-1.402 1.346.364c.104 0 .104-.052.259.104zm-104.04 12.925c-.154.882-.361 1.765-.672 2.595 0 .052-.31.83-.259.882-.62-.259-1.035-.934-1.449-1.453-.57-.779-.673-1.765-.57-2.699 0-.156.208-.571.208-.571.621-.882 1.035-2.024 2.38-2.024.156.259.208.519.26.778.103.571.207 1.142.207 1.714 0 .259-.053.518-.104.778zm-20.859 5.71c-.258.155-1.035.311-1.19.467-1.397.415-2.898 1.817-3.882 2.751-.466.156-3.157 3.633-3.52 3.79-.414-1.714-.259-5.763-.31-6.074-.621-2.128.207-5.762-.57-8.565a5.166 5.166 0 0 1-.258-1.35c-.052-.518.259-.882.621-1.037 4.037-2.025 8.126-1.09 9.058 3.582.466 2.231.517 4.203.051 6.436zm-5.952 6.851c.156-.363.828-1.297 1.087-1.712.363-.572 1.139-1.09 1.76-1.661.466-.415.88-.728 1.397-1.142.415-.312.622-.727 1.346-.779-.466 2.907-3.313 4.152-5.59 5.294zm46.481-6.592c-.155-.052-.57-.104-.673.052 0 0-.103.26-.31.52-.26.467-1.76 3.53-2.226 4.256a29.2 29.2 0 0 1-.88 1.35c-.777 1.193-3.416 4.048-4.865 2.699-.466-1.09.103-2.907.362-3.842.258-.882.414-1.764.673-2.647.362-.935.62-1.92.932-2.855.362-.986 1.449-4.671 1.759-5.658.31-.986-.621-2.387-1.242-3.063-.828-.882-3.623-1.245-3.933-1.713-.052-.051 0-.103 0-.155-.26-.935.103-1.557.206-2.44.052-1.09-1.19-1.972-2.07-2.128-.518-.104-1.139.467-1.346.882-.776 1.402-.31 3.427.57 4.568.155.312.258.467.361.883.104.363.363.467.104 1.09-.052.104-.207.467-.517 1.09-.104.207-.207.416-.362.675-.104.207-.208.415-.26.674-.828 1.506-1.604 3.063-3.468 3.686-.258.104-.62.311-.93.26-.518-.104-.312-.727-.26-1.09.104-.416.104-1.039.155-1.298.052-.156.052-.624.156-.779h.051c.052-.363.156-.674.156-1.038.052-.415 0-.83 0-1.194.052-.363.103-.675.103-1.038-.051-.363-.259-.467-.414-.727-.103-.155-.155-.363-.259-.519-.155-.363-.362-.778-.672-.987-.622-.466-1.502-.985-2.382-.415-.673.468-.931 1.298-1.345 2.025-.673 1.194-.829 2.491-.776 3.84 0 .053-.053.053 0 .105 0 0 0-.052.051-.052 0 .208.052.416.155.571.156.467.259.935.518 1.246.518.674 1.035 1.194 1.139 2.076.103.779-.104 1.661-.518 2.336-.673 1.142-1.967 2.907-3.416 2.959-1.45.103-2.07-1.817-2.226-2.959-.259-1.61-.052-3.27.259-4.827.362-1.869 1.19-3.634 2.174-5.295.414-.52.88-.986 1.294-1.453.207-.26.466-.364.673-.52.259-.207 1.811-.83 1.811-1.142.311-.155.26-.467.311-.726a.722.722 0 0 0-.104-.571h.104c-.104-.83-3.779-.208-4.037 0-.466.31-.88.726-1.346 1.09-.88.883-1.708 1.817-2.381 2.855-.8 1.142-1.504 2.533-2.035 4.024-.246.517-.698 1.51-1.123 2.36-.93 1.402-2.225 1.662-3.26 1.817a.836.836 0 0 1-.674-.311c-.517-.779-.258-2.907-.362-3.634-.155-1.245-.413-2.44-1.035-3.478-.31-.57-.621-1.09-1.035-1.609-2.64-3.062-5.073-4.153-10.3-3.893-1.812.104-3.468 1.557-5.073 2.128-.207.104-.517-.57-.777-.519-.103 0-.103-.052-.258-.052-.052 0-.466 0-.466-.052a.39.39 0 0 1-.104.208c-.051.104-.103.104-.155.208-.155.103.052.207 0 .363h-.052c-.051.052.104.882.104.987.052.103 0 .259 0 .363 0 .467.62.882.725 1.298.258.882.206 1.868.31 2.803.156 1.868-.362 4.048-.207 5.917.414 5.191-.414 10.07 0 15.21.155 1.453-.051 2.854-.103 4.308-.104 1.141.103 2.75.103 3.944-.051 1.09 0 1.61 0 2.389.103 1.608 1.19 2.802 2.743 2.802 1.191 0 2.226-.363 2.537-1.453.983-3.27.103-5.242 0-7.89 0-1.66.155-3.478.103-5.14 0-1.452.207-2.854.155-4.307 0 .26 3.417.519 3.727.467 6.108-1.35 7.195-4.465 9.266-9.136 2.054-.187 3.099-.252 4.233-1.482a11.9 11.9 0 0 0 .114 2.676c.207.986.57 2.128 1.087 3.01.828 1.61 2.33 2.803 3.883 3.634a7.753 7.753 0 0 0 2.639.779c4.969.623 6.004-3.946 6.004-7.579.052-.415.104-.986.311-1.35.207-.362.62-.31.931-.362.466-.053.88-.157 1.295-.416.931-.519 1.242-1.142 1.967-1.973.88-1.09 1.293-2.388 1.656-3.737.104-.155.155-.26.207-.364.259-.467.414-.726.414-.778.103-.311.103-.415.156-.571.155-.26.103-.26.206-.57.311.207.311.362.622.518.413.156.62.26 1.035.363-.415.728-.57 1.506-.932 2.233-.621 1.453-1.915 5.658-2.226 7.163-.259 1.505-.724 3.062-.57 4.62.104.778.777 3.841 3.313 4.256 1.605.156 2.744 0 3.468-.415 1.76-1.143 3.727-4.1 4.607-5.503.26-.363.415-.83.57-1.038.103-.155 1.604-3.062 1.708-3.374.051-.208-.156-.414-.31-.519zm150.967-31.078c-.715 3-1.442 5.846-2.312 8.858-.484 1.897-.814 3.783-1.299 5.68-1.365 4.755-3.808 9.585-7.109 13.236-3.004 3.474-8.713 5.9-11.549.825-1.76-2.98-1.242-6.586.08-9.785 1.177-3.033 3.597-6 5.545-9.088 2.795-2.062 4.412-5.437 6.865-7.941 2.157-2.327 4.028-4.323 6.184-6.65.99-1.312 2.41-3.12 3.917-3.695l.154-.01c.363 2.923.251 5.725-.476 8.57zM73.13 87.114c.231-1.103.176-1.875.419-2.824.747-2.537 2.31-4.511 3.872-6.485.408-2.979 2.62-6.706 4.842-8.107.44-.342.925-.066 1.398.056.988 3.034.394 5.559-.355 8.096-.098.784-.187 1.72-.44 2.515-.77 2.228-1.53 4.611-2.95 6.42-.43.496-.847 1.147-1.43 1.654-.847 1.147-1.255 1.951-2.574 2.977-1.332.871-2.95 2.074-4.785 2.36-.331-2.46 1.386-4.445 2.003-6.662zm101.826-76.496c.364-1.423 1.234-6.608 3.61-5.846 1.43.519 2.617 1.987 3.332 3.332.9 1.798 1.208 3.95 1.659 5.936.363 2.922-.056 5.746-.629 8.582-1.19 5.051-2.06 10.235-3.875 15.177-1.036 2.868-1.905 5.879-3.577 8.481-.308-2.15.32-4.213.166-6.375.044-1.555-.373-3.078-.483-4.622-.253-1.38-.054-2.945-.153-4.335.001-2.174-.01-4.5-.328-6.807-.472-4.467-.79-8.946.278-13.523zm120.89 67.738c-1.848.132-2.19-.31-3.179-1.17-.396.96-.914 2.393-1.485 3.055-2.752 4.853-4.909 9.353-8.781 13.666-1.585 1.664-7.703 7.068-9.715 9.23.582-.508-.952-17.783-1.062-19.327-.153-8.681.533-23.01-2.974-30.987-2.364-7.126-3.331-7.678-11.217-7.58-1.892 1.687-1.465 3.364-1.63 5.394-.012 2.018 1.21 3.948 1.043 5.978-.288 6.85 1.526 12.774 1.018 18.709-.584 9.2-15.791 32.636-21.434 29.47-2.858-5.384-5.187-20.74-5.8-25.042-1.374-8.44.837-9.994-1.36-21.324-1.12-2.714-.912-4.125-2.33-6.663-1.77-3.133-3.86-4.226-7.412-4.128-4.62.33-4.412 3.265-3.841 6.95.949 6.962 1.14 19.082 2.2 30.43-.613 1.486-1.187 2.952-1.877 4.625-.53 1.28-1.222 2.416-1.905 3.707-.681 1.29-1.045 2.713-1.727 4.004-1.09 2.095-1.432 3.827-2.686 5.779-1.1 1.941-5.238 11.24-7.394 11.393-1.42-.364-1.309-.993-1.551-2.217-.505-2.758.21-5.76.178-6.222 2.148-15.52 1.722-25.89-2.003-41.301-1.78-7.633-9.49-9.41-13.99-9.556-3.277-.387-4.662-.287-6.313.451-1.804.75-3.531 2.58-4.72 3.286-.155.01 2.126-7.136 2.39-7.776.846-1.147 1.86-2.15 2.706-3.298 1.111-1.787 2.222-3.573 3.322-5.515 2.201-3.882 3.919-8.04 4.998-12.463 1.794-7.424 2.116-15.984-1.171-23.044-2.375-5.108-7.115-8.65-12.648-5.927-6.282 3.087-9.914 10.797-12.104 17.006-4.876 14.163-5.573 30.51-6.523 45.48-.537 8.49-.288 17.342.446 25.962-1.378 1.626-2.618 3.373-4.136 4.879-3.467 3.507-8.077 8.338-11.883 11.404-3.224 2.558-5.59 4.124-9.153 6.24-1.496.728-3.806.893-5.534.551-.483-.276-2.089-1.093-2.595-1.678-.363-.75-.615-2.129-.67-2.9a21.763 21.763 0 0 1-.318-4.48c-.23-5.416 1.52-11.284 1.6-16.722-.023-.308.241-.949.373-1.269.121-.473.088-.937.21-1.411.22-1.258.594-2.527.98-3.64.385-1.115.935-2.085 1.166-3.188.397-.96.463-2.206 1.014-3.177.539-1.124 1.078-2.249 1.771-3.386.561-.816 1.441-1.5 2.167-2.173.43-.496.54-1.124 1.288-1.488.363.75.296 1.997.35 2.769.077 1.08.143 2.007.055 2.945.132 1.854-.035 3.883.252 5.725.077 1.081.307 2.152.538 3.221.198.607.417 1.522.748 1.81.34.44.791.254 1.44.673.638.264 1.144.85 1.947 1.258 1.617.97 2.739 1.511 3.904 2.67 1.067-.231 1.892.486 2.475-.021l-.154.01c.143-.165.32.133.308-.021 1.705-2.14 2.85-5.636 3.29-8.152.915-4.565-1.12-9.232-3.56-13.094-1.374-1.92-2.892-3.674-4.838-4.931-.484-.277-3.08-1.955-3.883-2.363-.154.012-1.155-1.004-2.1-1.246-.65-.42-2.365-.608-2.365-.608-5.467 1.477-9.438 4.4-13.048 8.071-6.007 6.948-9.54 13.875-10.961 22.203-.44.342-.287 2.504-.715 3 .165.143.176.299.198.608a26.296 26.296 0 0 0-.043 3.006c-1.04 1.438-2.053 2.911-2.706 4.019-3.742 6.165-13.094 16.146-24.225 16.32-2.322.01-4.103-1.104-5.785-3.002-.99-.86-2.805-2.439-2.893-3.674-.197-.606-.11-1.545-.01-2.328-.143-2.008-.054-2.945-.02-4.655 1.66-.584 4.058.487 5.61.531 2.034.321 4.035.178 6.016-.274 3.97-.749 7.535-2.866 10.087-6.153 5.106-6.573 6.418-16.445 1.568-23.705-2.407-3.398-7.07-8.032-11.327-9.125-3.619-.829-8.37 1.994-10.857 4.034-3.202 2.867-6.085 5.868-8.637 9.154-4.974 6.253-6.208 15.033-6.88 22.998-.365 5.769 1.591 11.527 4.57 16.437.88 1.49 1.914 2.968 3.08 4.126.835.872 1.826 1.733 2.671 2.76 1.002 1.014 2.156 2.018 3.147 2.88 1.638 1.278 3.266 2.404 5.168 3.045 3.63.982 8.24.498 11.011-1.873 2.917-2.537 6.16-4.786 9.242-7.178 6.552-4.991 9.464-10.627 12.218-17.267.247.975.526 1.925.839 2.83.396 1.214 1.408 2.382 1.33 3.475 2.683 5.086 5.554 8.451 9.38 12.213 3.64 3.311 10.229 4.547 15.18 2.332 3.003-1.3 6.523-4.036 9.163-6.087 2.795-2.062 4.686-3.75 6.667-6.374 2.251-2.983 5.093-7.609 7.21-11.63l.03.248c.427 3.85.998 7.534 1.118 11.406.044 2.791-.596 6.872.977 9.398 1.407 2.384 5.168 3.047 7.787 2.86 3.08-.22 4.63-.175 5.335-3.33.474-2.052.64-4.082.804-6.111.321-4.214-.294-8.516-.743-12.675-1.043-10.325-2.68-15.952.787-25.978 1.012-3.176 7.242-15.728 11.31-8.568.34.441.362.75.538 1.048 1.462 3.155 1.286 7.204 1.362 10.458-.078 5.438.713 5.692.48 11.141-.1 5.13-.278 13.524.546 18.588 1.329 7.82 4.232 11.65 12.745 13.835 1.42.365 2.805.266 4.345.156 5.664-.87 10.76-16.29 12.204-19.963a459.784 459.784 0 0 0 2.94-7.916c.723 4.913 1.71 9.363 3.13 12.76 2.033 4.667 6.596 10.084 13.559 10.053 3.41.066 7.062-.815 10.219-2.127 6.16-2.612 9.606-12.948 12.808-17.988.384 1.059.072 16.293.139 17.22-.176-.299-13.864 14.027-14.59 14.7-6.062 6.176-12.015 13.896-15.163 21.881a25.891 25.891 0 0 0-1.717 8.505c-.056 3.574 1.614 7.49 3.682 10.447 3.804 5.627 14.407 4.56 19.479 1.87 6.128-3.077 12.355-9.109 14.7-15.33 5.635-14.372 8.464-22.49 8.346-35.054-.01-2.328.419-2.825.254-5.141-.066-.926-.176-.297.133-2.493 7.878-6.77 11.718-13.72 16.768-21.065 1.288-1.488 1.519-2.592 2.212-3.727 1.365-2.581 3.104-8.604 3.226-9.078l-.154.01z" mask="url(#b)"/>
        </g>
        <path fill="#FFF" d="M121.907 222.665v-13.83c0-3.333-1.426-5.047-4.11-5.047-2.685 0-4.792 1.714-4.792 5.048v13.829h-7.175v-24.82l7.03.023v3.514c1.617-2.079 4.241-3.976 7.804-3.976 5.323 0 8.423 3.515 8.423 9.206v16.053h-7.18zM189.047 204.76c-4.673 0-7.545 2.822-7.545 8.745v9.16h-7.032v-24.796h7.032v4.995c1.435-3.423 3.747-5.647 7.913-5.46v7.356h-.368z"/>
        <g transform="translate(78 196.204)">
            <mask id="d" fill="#fff">
                <use xlink:href="#c"/>
            </mask>
            <path fill="#FFF" d="M13.349 7.651c-3.44 0-5.939 2.904-5.939 6.252s2.5 6.25 5.939 6.25c3.44 0 5.94-2.902 5.94-6.25s-2.5-6.252-5.94-6.252m0 19.426c-7.59 0-13.35-5.583-13.35-13.174C0 6.316 5.76.73 13.35.73s13.353 5.585 13.353 13.172c0 7.59-5.763 13.174-13.353 13.174" mask="url(#d)"/>
        </g>
        <g transform="translate(154.308 192.511)">
            <mask id="f" fill="#fff">
                <use xlink:href="#e"/>
            </mask>
            <path fill="#FFF" d="M18.121 29.79c-2.338.633-4.434.78-5.602.78-7.26 0-7.26-4.577-7.26-6.625V10.832H.536v-5.43H5.26v-3.7L12.422.72V5.4h5.845v5.43h-5.845v10.727c.046 2.242.046 3.653 3.264 3.653 1.07 0 1.559-.048 2.435-.146v4.725z" mask="url(#f)"/>
        </g>
        <path fill="#FFF" d="M142.98 203.138c-2.67 0-5.032 1.822-5.612 4.493h11.226c-.578-2.671-2.94-4.493-5.614-4.493m12.827 9.219h-18.525c.446 2.936 2.894 4.672 5.79 4.672 2.001 0 3.295-.798 4.498-2.313h7.568c-2.138 4.94-6.5 8.55-12.066 8.55-7.214 0-13.098-5.88-13.098-13.095 0-7.168 5.705-13.268 12.962-13.268 7.567 0 13.047 6.056 13.047 13.492 0 .67-.176 1.962-.176 1.962M202.258 203.138c-2.67 0-5.032 1.822-5.612 4.493h11.227c-.578-2.671-2.94-4.493-5.615-4.493m12.829 9.219H196.56c.447 2.936 2.895 4.672 5.79 4.672 2.002 0 3.296-.798 4.498-2.313h7.57c-2.139 4.94-6.5 8.55-12.067 8.55-7.214 0-13.096-5.88-13.096-13.095 0-7.168 5.703-13.268 12.962-13.268 7.566 0 13.045 6.056 13.045 13.492 0 .67-.175 1.962-.175 1.962M229.01 203.138c-2.669 0-5.032 1.822-5.613 4.493h11.227c-.58-2.671-2.94-4.493-5.614-4.493m12.828 9.219h-18.526c.446 2.936 2.895 4.672 5.79 4.672 2.002 0 3.295-.798 4.498-2.313h7.566c-2.135 4.94-6.497 8.55-12.064 8.55-7.214 0-13.094-5.88-13.094-13.095 0-7.168 5.7-13.268 12.957-13.268 7.57 0 13.048 6.056 13.048 13.492 0 .67-.175 1.962-.175 1.962"/>
        <path fill="#DA3A3A" d="M248.21 223.28h-7.319l5.573-8.56h7.313z"/>
        <text fill="#FFF" font-family="Hensa-Regular, Hensa" font-size="16" transform="translate(40 192)">
            <tspan x="6.368" y="23">en</tspan>
        </text>
    </g>
</svg>
